# xmcd
# 
# Track frame offsets:
#     150
#     14926
#     31142
#     44203
#     65245
#     85605
#     98275
#     111999
#     134562
# 
# Disc length: 2010
# 
# Revision: 2
# Processed by: cddbd v1.5.2PL0 Copyright (c) Steve Scherf et al.
# Submitted via: BonkEnc v1.0
# 
DISCID=7e07d809
DTITLE=憂歌団 - 憂歌団究極のベスト!
DYEAR=2005
DGENRE=Blues
TTITLE0=おそうじオバちゃん
TTITLE1=パチンコ?ランランブルース（Live）
TTITLE2=嫌んなった
TTITLE3=純愛だけど朝帰り
TTITLE4=君といつまでも
TTITLE5=ゲゲゲの鬼太郎
TTITLE6=ファンキーモンキーベイビー
TTITLE7=風を追いかけて
TTITLE8=Happy Go Lucky
EXTD=YEAR: 2005
EXTT0=
EXTT1=
EXTT2=
EXTT3=
EXTT4=
EXTT5=
EXTT6=
EXTT7=
EXTT8=
PLAYORDER=
